<?xml version="1.0" encoding="UTF-8"?>
<!DOCTYPE svg PUBLIC "-//W3C//DTD SVG 1.1//EN" "http://www.w3.org/Graphics/SVG/1.1/DTD/svg11.dtd">
<svg xmlns="http://www.w3.org/2000/svg" version="1.1" width="344px" height="441px"
    style="shapeRendering:geometricPrecision; textRendering:geometricPrecision; imageRendering:optimizeQuality; fillRule:evenodd; clipRule:evenodd"
    xmlns:xlink="http://www.w3.org/1999/xlink">
    <g>
        <path style="opacity:0.954" fill="#050202"
            d="M 167.5,-0.5 C 170.5,-0.5 173.5,-0.5 176.5,-0.5C 185.614,7.36871 191.447,17.3687 194,29.5C 203.233,23.7476 213.067,22.2476 223.5,25C 227.126,28.5403 228.793,32.8736 228.5,38C 228.284,42.8608 227.284,47.5275 225.5,52C 230.674,53.7538 235.841,55.5871 241,57.5C 263.244,45.6317 286.411,35.7983 310.5,28C 314.5,27.3333 318.5,27.3333 322.5,28C 324.848,28.3459 326.681,29.5125 328,31.5C 329.277,35.0969 329.61,38.7636 329,42.5C 322.037,65.6582 310.871,86.3248 295.5,104.5C 315.22,134.979 328.053,168.312 334,204.5C 338.073,225.846 341.239,247.18 343.5,268.5C 343.5,276.833 343.5,285.167 343.5,293.5C 341.649,311.346 339.815,329.346 338,347.5C 335.265,366.152 326.098,380.652 310.5,391C 303.819,394.557 296.986,397.724 290,400.5C 289.333,402.833 289.333,405.167 290,407.5C 294.819,416.284 296.485,425.617 295,435.5C 294.5,437.333 293.333,438.5 291.5,439C 288.305,439.181 285.305,439.681 282.5,440.5C 262.5,440.5 242.5,440.5 222.5,440.5C 217.946,440.47 214.446,438.47 212,434.5C 210.104,426.966 209.104,419.299 209,411.5C 208.484,408.966 207.317,406.8 205.5,405C 194.48,398.801 182.647,396.301 170,397.5C 158.23,396.152 147.396,398.652 137.5,405C 136.206,407.087 135.039,409.254 134,411.5C 133.667,417.167 133.333,422.833 133,428.5C 131.628,437.433 126.461,441.433 117.5,440.5C 97.5,440.5 77.5,440.5 57.5,440.5C 55.369,439.686 53.0356,439.186 50.5,439C 49.2986,438.097 48.4652,436.931 48,435.5C 46.284,425.543 47.9507,416.21 53,407.5C 53.6667,405.5 53.6667,403.5 53,401.5C 44.1462,397.657 35.6462,393.157 27.5,388C 14.9039,376.977 7.40394,363.144 5,346.5C 3.4261,329.656 1.59276,312.989 -0.5,296.5C -0.5,285.833 -0.5,275.167 -0.5,264.5C 3.40247,231.106 9.90247,198.106 19,165.5C 26.0086,143.483 36.1753,123.149 49.5,104.5C 44.1339,99.2995 39.3005,93.6329 35,87.5C 27.2906,74.078 20.6239,60.078 15,45.5C 12.5167,29.9906 19.0167,24.1573 34.5,28C 57.5497,36.1236 79.8831,45.7903 101.5,57C 106.78,55.9712 112.114,54.8045 117.5,53.5C 116.126,48.4269 115.126,43.2603 114.5,38C 115.538,24.8366 122.538,20.1699 135.5,24C 140.442,24.8664 144.942,26.6998 149,29.5C 151.755,21.5627 155.089,13.8961 159,6.5C 161.441,3.54644 164.275,1.21311 167.5,-0.5 Z" />
    </g>
    <g>
        <path style="opacity:1" fill="#f80035"
            d="M 177.5,23.5 C 177.402,25.5529 178.069,27.2196 179.5,28.5C 180.537,29.9303 181.204,31.597 181.5,33.5C 181.884,38.0102 182.551,42.3435 183.5,46.5C 183.5,49.5 183.5,52.5 183.5,55.5C 185.179,55.7148 186.179,55.0481 186.5,53.5C 191.189,49.4855 196.522,46.4855 202.5,44.5C 205.049,44.6126 207.382,43.9459 209.5,42.5C 210.48,45.0865 210.813,47.7531 210.5,50.5C 210.365,54.4302 209.032,57.7635 206.5,60.5C 205.549,61.9187 205.216,63.5853 205.5,65.5C 207.5,65.5 209.5,65.5 211.5,65.5C 213.735,65.2053 215.735,65.5386 217.5,66.5C 219.515,67.9238 221.848,68.5905 224.5,68.5C 232.154,70.1996 239.154,73.1996 245.5,77.5C 245.821,79.0481 246.821,79.7148 248.5,79.5C 251.4,80.4432 253.733,82.1099 255.5,84.5C 255.821,86.0481 256.821,86.7148 258.5,86.5C 266.854,93.5225 274.187,101.523 280.5,110.5C 280.285,112.179 280.952,113.179 282.5,113.5C 302.467,142.709 314.801,175.042 319.5,210.5C 318.911,214.971 319.577,218.971 321.5,222.5C 320.911,226.971 321.577,230.971 323.5,234.5C 322.903,239.294 323.57,243.627 325.5,247.5C 327.19,262.643 327.69,277.976 327,293.5C 325.399,300.502 322.566,306.836 318.5,312.5C 316.952,312.821 316.285,313.821 316.5,315.5C 316.5,315.833 316.5,316.167 316.5,316.5C 314.205,317.136 312.539,318.469 311.5,320.5C 308.854,322.479 306.521,324.812 304.5,327.5C 301.052,328.39 298.052,330.057 295.5,332.5C 289.752,336.196 283.419,338.53 276.5,339.5C 273.572,339.565 270.905,340.232 268.5,341.5C 264.081,342.972 259.414,343.638 254.5,343.5C 249.968,343.818 245.634,343.485 241.5,342.5C 242.614,341.115 243.614,339.615 244.5,338C 240.137,337.106 235.804,336.106 231.5,335C 226.646,333.618 224.979,330.618 226.5,326C 232.176,325.053 237.51,323.219 242.5,320.5C 237.754,318.714 233.42,316.381 229.5,313.5C 228.621,311.772 227.954,309.939 227.5,308C 227.585,306.893 227.919,305.893 228.5,305C 234.016,304.827 239.349,304.327 244.5,303.5C 245.5,303.5 246.5,303.5 247.5,303.5C 247.634,301.708 247.301,300.042 246.5,298.5C 253.946,296.847 261.612,295.847 269.5,295.5C 286.399,292.568 298.065,283.235 304.5,267.5C 305.809,265.429 306.475,262.929 306.5,260C 306.497,257.31 306.164,254.81 305.5,252.5C 304.833,252.5 304.167,252.5 303.5,252.5C 301.656,254.279 300.99,256.612 301.5,259.5C 301.139,263.915 299.806,267.915 297.5,271.5C 294.791,274.208 292.458,277.208 290.5,280.5C 286.524,283.822 281.857,286.155 276.5,287.5C 273.482,287.704 270.482,288.037 267.5,288.5C 267.106,265.882 266.106,243.216 264.5,220.5C 264.715,218.821 264.048,217.821 262.5,217.5C 259.541,215.457 256.208,214.29 252.5,214C 198.833,213.333 145.167,213.333 91.5,214C 88.4715,214.539 85.4715,215.206 82.5,216C 80.6705,218.682 79.3372,221.516 78.5,224.5C 76.5113,245.14 75.8447,266.14 76.5,287.5C 74.4352,287.517 72.4352,287.85 70.5,288.5C 66.6441,285.099 61.9774,283.433 56.5,283.5C 56.1788,281.952 55.1788,281.285 53.5,281.5C 47.3863,277.041 43.7197,271.041 42.5,263.5C 42.6646,260.482 42.498,257.482 42,254.5C 38.4732,250.765 36.6398,251.765 36.5,257.5C 36.6779,260.737 37.3446,263.737 38.5,266.5C 45.2494,285.54 58.9161,295.54 79.5,296.5C 84.6503,297.651 89.9836,297.817 95.5,297C 96.056,296.617 96.3893,296.117 96.5,295.5C 97.4972,295.47 98.1639,295.97 98.5,297C 96.7991,298.86 95.7991,301.027 95.5,303.5C 96.5,303.5 97.5,303.5 98.5,303.5C 102.97,304.486 107.637,304.819 112.5,304.5C 113.183,306.176 114.517,306.843 116.5,306.5C 116.5,308.167 116.5,309.833 116.5,311.5C 112.976,315.099 108.643,317.432 103.5,318.5C 101.744,319.552 101.077,321.219 101.5,323.5C 104.167,323.5 106.833,323.5 109.5,323.5C 111.26,325.559 113.594,326.892 116.5,327.5C 115.861,329.76 114.694,331.76 113,333.5C 111.989,334.337 110.822,334.67 109.5,334.5C 105.988,333.945 102.988,334.612 100.5,336.5C 99.8333,337.167 99.1667,337.833 98.5,338.5C 98.5394,339.583 98.8728,340.583 99.5,341.5C 98,341.833 96.5,342.167 95,342.5C 88.5234,341.702 82.0234,341.368 75.5,341.5C 63.1795,340.061 51.8462,336.061 41.5,329.5C 41.1788,327.952 40.1788,327.285 38.5,327.5C 37.1283,326.488 35.795,325.488 34.5,324.5C 34.106,322.29 32.7727,320.957 30.5,320.5C 23.0887,313.018 18.2554,304.018 16,293.5C 15.414,281.156 15.5807,268.822 16.5,256.5C 17.7251,255.848 18.3917,254.681 18.5,253C 20.9934,238.544 22.9934,224.044 24.5,209.5C 26.1667,198.144 28.8333,187.144 32.5,176.5C 36.1735,170.147 38.5068,163.147 39.5,155.5C 40.9782,149.721 43.3116,144.388 46.5,139.5C 47.3764,139.631 48.0431,139.298 48.5,138.5C 51.5221,132.382 54.5221,126.382 57.5,120.5C 74.5103,88.9644 100.844,70.131 136.5,64C 137.056,63.6174 137.389,63.1174 137.5,62.5C 137.771,60.6203 137.104,59.287 135.5,58.5C 134.055,56.4293 133.055,54.096 132.5,51.5C 132.5,48.1667 132.5,44.8333 132.5,41.5C 133.833,41.5 135.167,41.5 136.5,41.5C 144.29,44.2252 151.29,48.2252 157.5,53.5C 157.783,54.2891 158.283,54.9558 159,55.5C 159.498,52.1832 159.665,48.8499 159.5,45.5C 160.693,45.0296 161.36,44.0296 161.5,42.5C 162.558,37.8806 163.224,33.2139 163.5,28.5C 164.519,23.1488 167.186,18.8155 171.5,15.5C 174.48,17.473 176.48,20.1397 177.5,23.5 Z" />
    </g>
    <g>
        <path style="opacity:1" fill="#6a0012"
            d="M 177.5,23.5 C 178.931,24.7804 179.598,26.4471 179.5,28.5C 178.069,27.2196 177.402,25.5529 177.5,23.5 Z" />
    </g>
    <g>
        <path style="opacity:0.986" fill="#b90025"
            d="M 163.5,28.5 C 163.224,33.2139 162.558,37.8806 161.5,42.5C 161.36,44.0296 160.693,45.0296 159.5,45.5C 159.578,39.4253 160.911,33.7587 163.5,28.5 Z" />
    </g>
    <g>
        <path style="opacity:1" fill="#690010"
            d="M 181.5,33.5 C 182.268,34.2625 182.768,35.2625 183,36.5C 183.498,39.8168 183.665,43.1501 183.5,46.5C 182.551,42.3435 181.884,38.0102 181.5,33.5 Z" />
    </g>
    <g>
        <path style="opacity:0.985" fill="#ab0021"
            d="M 136.5,41.5 C 135.167,41.5 133.833,41.5 132.5,41.5C 132.5,44.8333 132.5,48.1667 132.5,51.5C 131.778,51.0825 131.278,50.4158 131,49.5C 130.333,46.5 130.333,43.5 131,40.5C 132.996,39.6589 134.829,39.9923 136.5,41.5 Z" />
    </g>
    <g>
        <path style="opacity:0.984" fill="#b50024"
            d="M 210.5,50.5 C 210.813,47.7531 210.48,45.0865 209.5,42.5C 207.382,43.9459 205.049,44.6126 202.5,44.5C 211.852,37.8565 214.518,39.8565 210.5,50.5 Z" />
    </g>
    <g>
        <path style="opacity:1" fill="#fbfbfb"
            d="M 32.5,44.5 C 34.9267,44.523 37.26,45.023 39.5,46C 55.9303,53.0489 71.9303,60.8822 87.5,69.5C 78.0412,76.2361 69.3745,83.9027 61.5,92.5C 56.103,88.2716 51.603,83.2716 48,77.5C 41.731,66.9647 36.5644,55.9647 32.5,44.5 Z" />
    </g>
    <g>
        <path style="opacity:1" fill="#fbfbfb"
            d="M 306.5,44.5 C 307.833,44.5 309.167,44.5 310.5,44.5C 306.436,55.9647 301.269,66.9647 295,77.5C 291.397,83.2716 286.897,88.2716 281.5,92.5C 273.626,83.9027 264.959,76.2361 255.5,69.5C 260.844,65.8264 266.51,62.6597 272.5,60C 283.809,54.5201 295.142,49.3535 306.5,44.5 Z" />
    </g>
    <g>
        <path style="opacity:1" fill="#6d0011"
            d="M 159.5,45.5 C 159.665,48.8499 159.498,52.1832 159,55.5C 158.283,54.9558 157.783,54.2891 157.5,53.5C 158.167,50.8333 158.833,48.1667 159.5,45.5 Z" />
    </g>
    <g>
        <path style="opacity:1" fill="#6c0011"
            d="M 183.5,46.5 C 184.317,48.9686 184.817,51.6353 185,54.5C 185.383,53.944 185.883,53.6107 186.5,53.5C 186.179,55.0481 185.179,55.7148 183.5,55.5C 183.5,52.5 183.5,49.5 183.5,46.5 Z" />
    </g>
    <g>
        <path style="opacity:1" fill="#6f0013"
            d="M 135.5,58.5 C 137.104,59.287 137.771,60.6203 137.5,62.5C 136.326,61.4863 135.66,60.153 135.5,58.5 Z" />
    </g>
    <g>
        <path style="opacity:1" fill="#6b0011"
            d="M 206.5,60.5 C 206.5,61.8333 206.5,63.1667 206.5,64.5C 208.415,64.2155 210.081,64.5489 211.5,65.5C 209.5,65.5 207.5,65.5 205.5,65.5C 205.216,63.5853 205.549,61.9187 206.5,60.5 Z" />
    </g>
    <g>
        <path style="opacity:1" fill="#6a0011"
            d="M 217.5,66.5 C 220.152,66.4095 222.485,67.0762 224.5,68.5C 221.848,68.5905 219.515,67.9238 217.5,66.5 Z" />
    </g>
    <g>
        <path style="opacity:1" fill="#6c0011"
            d="M 245.5,77.5 C 246.71,77.9321 247.71,78.5987 248.5,79.5C 246.821,79.7148 245.821,79.0481 245.5,77.5 Z" />
    </g>
    <g>
        <path style="opacity:1" fill="#6c0011"
            d="M 255.5,84.5 C 256.71,84.9321 257.71,85.5987 258.5,86.5C 256.821,86.7148 255.821,86.0481 255.5,84.5 Z" />
    </g>
    <g>
        <path style="opacity:1" fill="#6c0011"
            d="M 280.5,110.5 C 281.401,111.29 282.068,112.29 282.5,113.5C 280.952,113.179 280.285,112.179 280.5,110.5 Z" />
    </g>
    <g>
        <path style="opacity:0.984" fill="#c10027"
            d="M 57.5,120.5 C 54.5221,126.382 51.5221,132.382 48.5,138.5C 48.0431,139.298 47.3764,139.631 46.5,139.5C 48.9076,132.34 52.5743,126.007 57.5,120.5 Z" />
    </g>
    <g>
        <path style="opacity:1" fill="#040000"
            d="M 118.5,142.5 C 141.746,142.256 156.579,153.256 163,175.5C 163.361,178.525 163.861,181.525 164.5,184.5C 164.287,189.045 161.954,191.712 157.5,192.5C 155.247,191.747 153.413,190.414 152,188.5C 149.528,163.681 136.028,153.515 111.5,158C 103.73,160.771 98.23,165.937 95,173.5C 93.5119,178.775 92.3452,184.108 91.5,189.5C 88.0161,193.346 84.5161,193.346 81,189.5C 78.9904,170.686 86.157,156.519 102.5,147C 107.783,144.85 113.116,143.35 118.5,142.5 Z" />
    </g>
    <g>
        <path style="opacity:1" fill="#050000"
            d="M 215.5,142.5 C 240.239,141.095 256.406,152.095 264,175.5C 264.667,180.167 264.667,184.833 264,189.5C 261.142,192.35 257.975,192.85 254.5,191C 252.818,185.27 251.318,179.437 250,173.5C 241.654,158.584 229.154,153.418 212.5,158C 204.755,160.744 199.255,165.911 196,173.5C 194.488,178.393 193.488,183.393 193,188.5C 190.469,192.202 187.302,193.035 183.5,191C 181.833,189.177 180.833,187.01 180.5,184.5C 182.804,162.541 194.471,148.541 215.5,142.5 Z" />
    </g>
    <g>
        <path style="opacity:0.996" fill="#bb0025"
            d="M 39.5,155.5 C 38.5068,163.147 36.1735,170.147 32.5,176.5C 33.8604,169.085 36.1937,162.085 39.5,155.5 Z" />
    </g>
    <g>
        <path style="opacity:0.984" fill="#a90020"
            d="M 319.5,210.5 C 320.795,214.267 321.461,218.267 321.5,222.5C 319.577,218.971 318.911,214.971 319.5,210.5 Z" />
    </g>
    <g>
        <path style="opacity:1" fill="#6c0011"
            d="M 262.5,217.5 C 264.048,217.821 264.715,218.821 264.5,220.5C 263.599,219.71 262.932,218.71 262.5,217.5 Z" />
    </g>
    <g>
        <path style="opacity:1" fill="#f6f6f6"
            d="M 141.5,230.5 C 138.434,234.57 134.767,237.903 130.5,240.5C 128.911,241.621 127.244,241.454 125.5,240C 123,237.5 120.5,235 118,232.5C 116.957,228.945 115.791,225.445 114.5,222C 124.5,221.333 134.5,221.333 144.5,222C 143.071,224.69 142.071,227.523 141.5,230.5 Z" />
    </g>
    <g>
        <path style="opacity:1" fill="#f5f5f5"
            d="M 183.5,231.5 C 182.196,232.987 181.03,234.654 180,236.5C 177.985,237.697 176.151,239.03 174.5,240.5C 170.896,242.007 167.562,241.34 164.5,238.5C 160.617,233.528 157.283,228.195 154.5,222.5C 165.146,221.501 175.813,221.168 186.5,221.5C 186.496,225.174 185.496,228.507 183.5,231.5 Z" />
    </g>
    <g>
        <path style="opacity:1" fill="#f6f6f6"
            d="M 221.5,237.5 C 218.111,239.22 214.444,239.887 210.5,239.5C 203.569,235.554 199.902,229.554 199.5,221.5C 209.167,221.5 218.833,221.5 228.5,221.5C 228.216,224.254 227.549,226.92 226.5,229.5C 224.78,232.202 223.113,234.868 221.5,237.5 Z" />
    </g>
    <g>
        <path style="opacity:1" fill="#b8182d"
            d="M 78.5,224.5 C 78.6666,245.836 78.5,267.169 78,288.5C 75.3953,289.814 72.8953,289.814 70.5,288.5C 72.4352,287.85 74.4352,287.517 76.5,287.5C 75.8447,266.14 76.5113,245.14 78.5,224.5 Z" />
    </g>
    <g>
        <path style="opacity:0.983" fill="#a90020"
            d="M 321.5,222.5 C 322.795,226.267 323.461,230.267 323.5,234.5C 321.577,230.971 320.911,226.971 321.5,222.5 Z" />
    </g>
    <g>
        <path style="opacity:1" fill="#525252"
            d="M 183.5,231.5 C 182.833,236.833 179.833,239.833 174.5,240.5C 176.151,239.03 177.985,237.697 180,236.5C 181.03,234.654 182.196,232.987 183.5,231.5 Z" />
    </g>
    <g>
        <path style="opacity:1" fill="#4c4c4c"
            d="M 141.5,230.5 C 140.221,234.302 137.888,237.469 134.5,240C 133.207,240.49 131.873,240.657 130.5,240.5C 134.767,237.903 138.434,234.57 141.5,230.5 Z" />
    </g>
    <g>
        <path style="opacity:0.984" fill="#bc0025"
            d="M 24.5,209.5 C 22.9934,224.044 20.9934,238.544 18.5,253C 18.3917,254.681 17.7251,255.848 16.5,256.5C 17.998,240.509 20.6646,224.843 24.5,209.5 Z" />
    </g>
    <g>
        <path style="opacity:1" fill="#838383"
            d="M 221.5,237.5 C 219.71,239.931 217.21,241.264 214,241.5C 212.541,241.192 211.374,240.525 210.5,239.5C 214.444,239.887 218.111,239.22 221.5,237.5 Z" />
    </g>
    <g>
        <path style="opacity:0.984" fill="#aa0021"
            d="M 323.5,234.5 C 324.895,238.591 325.562,242.924 325.5,247.5C 323.57,243.627 322.903,239.294 323.5,234.5 Z" />
    </g>
    <g>
        <path style="opacity:1" fill="#6d0011"
            d="M 303.5,252.5 C 302.935,254.952 302.268,257.285 301.5,259.5C 300.99,256.612 301.656,254.279 303.5,252.5 Z" />
    </g>
    <g>
        <path style="opacity:1" fill="#660111"
            d="M 42.5,263.5 C 41.6829,261.031 41.1829,258.365 41,255.5C 38.6215,252.989 37.4548,253.656 37.5,257.5C 38.1616,260.468 38.495,263.468 38.5,266.5C 37.3446,263.737 36.6779,260.737 36.5,257.5C 36.6398,251.765 38.4732,250.765 42,254.5C 42.498,257.482 42.6646,260.482 42.5,263.5 Z" />
    </g>
    <g>
        <path style="opacity:0.988" fill="#a0001e"
            d="M 305.5,252.5 C 306.164,254.81 306.497,257.31 306.5,260C 306.475,262.929 305.809,265.429 304.5,267.5C 305.254,262.537 305.587,257.537 305.5,252.5 Z" />
    </g>
    <g>
        <path style="opacity:1" fill="#fdfdfd"
            d="M 99.5,270.5 C 147.838,270.167 196.171,270.5 244.5,271.5C 243.018,273.483 241.351,275.316 239.5,277C 219.547,291.951 199.88,307.285 180.5,323C 177.978,324.843 175.145,326.01 172,326.5C 167.33,325.249 163.163,323.082 159.5,320C 140.167,304.667 120.833,289.333 101.5,274C 100.177,273.184 99.5106,272.017 99.5,270.5 Z" />
    </g>
    <g>
        <path style="opacity:1" fill="#46040c"
            d="M 297.5,271.5 C 296.345,275.332 294.012,278.332 290.5,280.5C 292.458,277.208 294.791,274.208 297.5,271.5 Z" />
    </g>
    <g>
        <path style="opacity:1" fill="#ececec"
            d="M 252.5,287.5 C 248.051,286.59 243.718,286.257 239.5,286.5C 244.352,281.574 250.019,277.907 256.5,275.5C 256.5,279.5 256.5,283.5 256.5,287.5C 255.167,287.5 253.833,287.5 252.5,287.5 Z" />
    </g>
    <g>
        <path style="opacity:1" fill="#f1f1f1"
            d="M 103.5,286.5 C 98.4053,286.221 93.4053,286.555 88.5,287.5C 88.1758,283.445 88.5091,279.445 89.5,275.5C 93.1555,279.313 97.4889,282.147 102.5,284C 103.252,284.671 103.586,285.504 103.5,286.5 Z" />
    </g>
    <g>
        <path style="opacity:1" fill="#6d0011"
            d="M 53.5,281.5 C 55.1788,281.285 56.1788,281.952 56.5,283.5C 55.2905,283.068 54.2905,282.401 53.5,281.5 Z" />
    </g>
    <g>
        <path style="opacity:1" fill="#ba1b2e"
            d="M 56.5,283.5 C 61.9774,283.433 66.6441,285.099 70.5,288.5C 67.2791,287.495 63.9457,286.661 60.5,286C 58.9336,285.392 57.6002,284.558 56.5,283.5 Z" />
    </g>
    <g>
        <path style="opacity:1" fill="#656565"
            d="M 103.5,286.5 C 98.966,287.216 94.2994,287.883 89.5,288.5C 88.8933,288.376 88.56,288.043 88.5,287.5C 93.4053,286.555 98.4053,286.221 103.5,286.5 Z" />
    </g>
    <g>
        <path style="opacity:1" fill="#555555"
            d="M 239.5,286.5 C 243.718,286.257 248.051,286.59 252.5,287.5C 248.278,287.263 244.111,287.596 240,288.5C 239.055,288.905 238.388,289.572 238,290.5C 237.809,292.708 237.309,294.708 236.5,296.5C 236.684,293.523 236.684,290.856 236.5,288.5C 237.29,287.599 238.29,286.932 239.5,286.5 Z" />
    </g>
    <g>
        <path style="opacity:1" fill="#64000f"
            d="M 276.5,287.5 C 273.591,289.287 270.591,289.621 267.5,288.5C 270.482,288.037 273.482,287.704 276.5,287.5 Z" />
    </g>
    <g>
        <path style="opacity:1" fill="#d1d1d1"
            d="M 116.5,295.5 C 118.031,296.925 117.698,297.591 115.5,297.5C 107.897,299.582 105.064,296.915 107,289.5C 107.718,288.549 108.551,288.383 109.5,289C 111.465,291.684 113.799,293.85 116.5,295.5 Z" />
    </g>
    <g>
        <path style="opacity:1" fill="#d8d8d8"
            d="M 236.5,288.5 C 236.684,290.856 236.684,293.523 236.5,296.5C 232.769,297.196 228.935,297.862 225,298.5C 224.833,298.167 224.667,297.833 224.5,297.5C 228.134,294.016 232.134,291.016 236.5,288.5 Z" />
    </g>
    <g>
        <path style="opacity:1" fill="#7c0015"
            d="M 269.5,295.5 C 261.612,295.847 253.946,296.847 246.5,298.5C 242.466,296.871 242.633,295.538 247,294.5C 254.467,295.415 261.967,295.748 269.5,295.5 Z" />
    </g>
    <g>
        <path style="opacity:1" fill="#ad1228"
            d="M 96.5,295.5 C 96.3893,296.117 96.056,296.617 95.5,297C 89.9836,297.817 84.6503,297.651 79.5,296.5C 85.1448,295.866 90.8114,295.532 96.5,295.5 Z" />
    </g>
    <g>
        <path style="opacity:1" fill="#707070"
            d="M 116.5,295.5 C 119.564,295.981 120.398,297.314 119,299.5C 117.698,298.915 116.531,298.249 115.5,297.5C 117.698,297.591 118.031,296.925 116.5,295.5 Z" />
    </g>
    <g>
        <path style="opacity:1" fill="#630313"
            d="M 96.5,295.5 C 98.0927,294.133 99.4261,294.466 100.5,296.5C 99.7469,298.753 98.4136,300.587 96.5,302C 97.4158,302.278 98.0825,302.778 98.5,303.5C 97.5,303.5 96.5,303.5 95.5,303.5C 95.7991,301.027 96.7991,298.86 98.5,297C 98.1639,295.97 97.4972,295.47 96.5,295.5 Z" />
    </g>
    <g>
        <path style="opacity:1" fill="#a4a4a4"
            d="M 130.5,306.5 C 128.883,305.962 127.216,305.629 125.5,305.5C 125.806,308.385 125.473,311.052 124.5,313.5C 124.177,309.774 124.511,306.107 125.5,302.5C 127.786,303.133 129.452,304.466 130.5,306.5 Z" />
    </g>
    <g>
        <path style="opacity:1" fill="#f2f2f2"
            d="M 219.5,302.5 C 218.213,306.268 218.213,309.935 219.5,313.5C 220.985,315.162 222.318,316.995 223.5,319C 216.886,325.414 216.886,331.914 223.5,338.5C 226.633,339.933 229.8,341.266 233,342.5C 232.266,347.324 234.099,350.49 238.5,352C 245.05,352.342 251.383,352.509 257.5,352.5C 257.826,361.017 257.493,369.35 256.5,377.5C 232.974,361.31 210.307,343.976 188.5,325.5C 197.997,317.507 207.664,309.674 217.5,302C 218.437,301.308 219.103,301.475 219.5,302.5 Z" />
    </g>
    <g>
        <path style="opacity:1" fill="#676767"
            d="M 219.5,302.5 C 219.704,305.918 219.704,309.584 219.5,313.5C 218.213,309.935 218.213,306.268 219.5,302.5 Z" />
    </g>
    <g>
        <path style="opacity:1" fill="#f8f8f8"
            d="M 130.5,306.5 C 137.808,311.81 144.808,317.477 151.5,323.5C 152.374,326.231 151.374,328.398 148.5,330C 128.239,346.101 107.572,361.601 86.5,376.5C 86.1688,368.14 86.5021,359.807 87.5,351.5C 90.4451,352.123 93.4451,352.456 96.5,352.5C 101.129,352.389 105.462,351.389 109.5,349.5C 109.5,347.167 109.5,344.833 109.5,342.5C 115.108,341.025 119.775,338.025 123.5,333.5C 125.338,328.087 124.338,323.42 120.5,319.5C 121.5,317.187 122.834,315.187 124.5,313.5C 125.473,311.052 125.806,308.385 125.5,305.5C 127.216,305.629 128.883,305.962 130.5,306.5 Z" />
    </g>
    <g>
        <path style="opacity:1" fill="#98041e"
            d="M 244.5,303.5 C 239.349,304.327 234.016,304.827 228.5,305C 227.919,305.893 227.585,306.893 227.5,308C 227.954,309.939 228.621,311.772 229.5,313.5C 225.18,311.067 224.514,307.901 227.5,304C 233.157,303.501 238.824,303.334 244.5,303.5 Z" />
    </g>
    <g>
        <path style="opacity:1" fill="#b30625"
            d="M 112.5,304.5 C 118.37,304.651 119.703,306.984 116.5,311.5C 116.5,309.833 116.5,308.167 116.5,306.5C 114.517,306.843 113.183,306.176 112.5,304.5 Z" />
    </g>
    <g>
        <path style="opacity:1" fill="#6d0011"
            d="M 318.5,312.5 C 318.068,313.71 317.401,314.71 316.5,315.5C 316.285,313.821 316.952,312.821 318.5,312.5 Z" />
    </g>
    <g>
        <path style="opacity:1" fill="#530410"
            d="M 316.5,316.5 C 315.421,318.543 313.754,319.876 311.5,320.5C 312.539,318.469 314.205,317.136 316.5,316.5 Z" />
    </g>
    <g>
        <path style="opacity:1" fill="#63010f"
            d="M 323.5,316.5 C 323.56,315.957 323.893,315.624 324.5,315.5C 325.817,321.654 325.817,327.654 324.5,333.5C 324.822,327.642 324.489,321.975 323.5,316.5 Z" />
    </g>
    <g>
        <path style="opacity:0.992" fill="#7f0017"
            d="M 20.5,317.5 C 22.5869,318.585 23.9202,320.251 24.5,322.5C 22.4131,321.415 21.0798,319.749 20.5,317.5 Z" />
    </g>
    <g>
        <path style="opacity:1" fill="#f60034"
            d="M 323.5,316.5 C 324.489,321.975 324.822,327.642 324.5,333.5C 323.527,335.948 323.194,338.615 323.5,341.5C 322.232,343.905 321.565,346.572 321.5,349.5C 320.828,354.179 319.161,358.512 316.5,362.5C 312.864,367.142 309.197,371.809 305.5,376.5C 303.223,377.449 301.223,378.782 299.5,380.5C 293.028,383.135 286.694,386.135 280.5,389.5C 277.833,390.167 276.167,391.833 275.5,394.5C 275.122,396.646 274.788,398.813 274.5,401C 276.902,409.032 278.568,417.199 279.5,425.5C 261.5,425.5 243.5,425.5 225.5,425.5C 225.5,423.833 225.5,422.167 225.5,420.5C 226.089,416.029 225.423,412.029 223.5,408.5C 220.763,403.243 217.763,398.077 214.5,393C 229.178,392.833 243.845,392.333 258.5,391.5C 261.833,390.167 264.167,387.833 265.5,384.5C 266.167,372.5 266.833,360.5 267.5,348.5C 290.46,345.029 309.127,334.362 323.5,316.5 Z" />
    </g>
    <g>
        <path style="opacity:0.999" fill="#f90035"
            d="M 20.5,317.5 C 21.0798,319.749 22.4131,321.415 24.5,322.5C 26.5,326.5 29.5,329.5 33.5,331.5C 38.6223,335.383 43.9556,338.716 49.5,341.5C 53.0583,343.935 57.0583,345.268 61.5,345.5C 66.0498,346.808 70.7165,348.142 75.5,349.5C 76.3326,361.486 76.8326,373.486 77,385.5C 79.4498,389.311 82.9498,391.477 87.5,392C 100.829,392.5 114.163,392.667 127.5,392.5C 127.608,394.514 126.942,396.18 125.5,397.5C 122.677,398.992 121.01,401.326 120.5,404.5C 118.117,409.801 116.783,415.468 116.5,421.5C 115.596,422.209 115.263,423.209 115.5,424.5C 98.5,424.5 81.5,424.5 64.5,424.5C 64.5,422.5 64.5,420.5 64.5,418.5C 66.1628,416.562 66.8294,414.228 66.5,411.5C 68.1628,409.562 68.8294,407.228 68.5,404.5C 69.6341,402.034 69.8007,399.367 69,396.5C 68.7996,394.68 67.9663,393.347 66.5,392.5C 63.5063,390 60.173,388 56.5,386.5C 54.8243,384.166 52.491,383.166 49.5,383.5C 46.6689,382.921 44.3356,381.588 42.5,379.5C 41.4154,377.413 39.7488,376.08 37.5,375.5C 33.1208,371.723 29.4542,367.39 26.5,362.5C 23.6294,354.717 21.4628,346.717 20,338.5C 19.2943,333.688 18.7943,328.854 18.5,324C 18.5332,321.39 19.1999,319.223 20.5,317.5 Z" />
    </g>
    <g>
        <path style="opacity:1" fill="#a10421"
            d="M 103.5,318.5 C 103.196,319.15 102.863,319.817 102.5,320.5C 104.875,321.66 107.208,322.66 109.5,323.5C 106.833,323.5 104.167,323.5 101.5,323.5C 101.077,321.219 101.744,319.552 103.5,318.5 Z" />
    </g>
    <g>
        <path style="opacity:0.988" fill="#7d0017"
            d="M 24.5,322.5 C 27.8333,325.167 30.8333,328.167 33.5,331.5C 29.5,329.5 26.5,326.5 24.5,322.5 Z" />
    </g>
    <g>
        <path style="opacity:1" fill="#6e0013"
            d="M 30.5,320.5 C 32.7727,320.957 34.106,322.29 34.5,324.5C 32.2273,324.043 30.894,322.71 30.5,320.5 Z" />
    </g>
    <g>
        <path style="opacity:1" fill="#b4142a"
            d="M 109.5,323.5 C 111.564,323.687 113.564,324.187 115.5,325C 116.252,325.671 116.586,326.504 116.5,327.5C 113.594,326.892 111.26,325.559 109.5,323.5 Z" />
    </g>
    <g>
        <path style="opacity:1" fill="#6c0011"
            d="M 38.5,327.5 C 40.1788,327.285 41.1788,327.952 41.5,329.5C 40.2905,329.068 39.2905,328.401 38.5,327.5 Z" />
    </g>
    <g>
        <path style="opacity:1" fill="#52030e"
            d="M 304.5,327.5 C 301.948,329.943 298.948,331.61 295.5,332.5C 298.052,330.057 301.052,328.39 304.5,327.5 Z" />
    </g>
    <g>
        <path style="opacity:1" fill="#fbfbfb"
            d="M 249.5,382.5 C 197.5,383.833 145.5,383.833 93.5,382.5C 115.791,365.221 138.124,347.888 160.5,330.5C 163.399,334.197 167.233,335.864 172,335.5C 176.153,334.845 179.986,333.678 183.5,332C 205.242,349.28 227.242,366.113 249.5,382.5 Z" />
    </g>
    <g>
        <path style="opacity:1" fill="#af152a"
            d="M 109.5,334.5 C 106.829,336.118 103.829,336.785 100.5,336.5C 102.988,334.612 105.988,333.945 109.5,334.5 Z" />
    </g>
    <g>
        <path style="opacity:1" fill="#6a0011"
            d="M 276.5,339.5 C 274.162,341.04 271.495,341.706 268.5,341.5C 270.905,340.232 273.572,339.565 276.5,339.5 Z" />
    </g>
    <g>
        <path style="opacity:1" fill="#660011"
            d="M 20.5,317.5 C 19.1999,319.223 18.5332,321.39 18.5,324C 18.7943,328.854 19.2943,333.688 20,338.5C 21.4628,346.717 23.6294,354.717 26.5,362.5C 19.441,348.104 16.441,332.771 17.5,316.5C 18.791,316.263 19.791,316.596 20.5,317.5 Z" />
    </g>
    <g>
        <path style="opacity:1" fill="#640112"
            d="M 49.5,341.5 C 53.767,342.256 57.767,343.589 61.5,345.5C 57.0583,345.268 53.0583,343.935 49.5,341.5 Z" />
    </g>
    <g>
        <path style="opacity:1" fill="#ba0f2a"
            d="M 98.5,338.5 C 101.238,339.663 102.238,341.497 101.5,344C 92.5793,344.507 83.9127,343.674 75.5,341.5C 82.0234,341.368 88.5234,341.702 95,342.5C 96.5,342.167 98,341.833 99.5,341.5C 98.8728,340.583 98.5394,339.583 98.5,338.5 Z" />
    </g>
    <g>
        <path style="opacity:1" fill="#6a0011"
            d="M 323.5,341.5 C 323.706,344.495 323.04,347.162 321.5,349.5C 321.565,346.572 322.232,343.905 323.5,341.5 Z" />
    </g>
    <g>
        <path style="opacity:1" fill="#61010e"
            d="M 241.5,342.5 C 245.634,343.485 249.968,343.818 254.5,343.5C 249.985,344.812 245.318,344.812 240.5,343.5C 240.624,342.893 240.957,342.56 241.5,342.5 Z" />
    </g>
    <g>
        <path style="opacity:1" fill="#646464"
            d="M 257.5,352.5 C 258.821,361.009 258.821,369.675 257.5,378.5C 256.893,378.376 256.56,378.043 256.5,377.5C 257.493,369.35 257.826,361.017 257.5,352.5 Z" />
    </g>
    <g>
        <path style="opacity:1" fill="#4f4f4f"
            d="M 151.5,323.5 C 152.995,323.415 153.995,324.081 154.5,325.5C 133.11,344.031 110.776,361.364 87.5,377.5C 86.8933,377.376 86.56,377.043 86.5,376.5C 107.572,361.601 128.239,346.101 148.5,330C 151.374,328.398 152.374,326.231 151.5,323.5 Z" />
    </g>
    <g>
        <path style="opacity:1" fill="#47030c"
            d="M 316.5,362.5 C 314.574,367.615 311.574,372.115 307.5,376C 306.906,376.464 306.239,376.631 305.5,376.5C 309.197,371.809 312.864,367.142 316.5,362.5 Z" />
    </g>
    <g>
        <path style="opacity:1" fill="#51020e"
            d="M 305.5,376.5 C 304.292,379.044 302.292,380.378 299.5,380.5C 301.223,378.782 303.223,377.449 305.5,376.5 Z" />
    </g>
    <g>
        <path style="opacity:1" fill="#8a001a"
            d="M 37.5,375.5 C 39.7488,376.08 41.4154,377.413 42.5,379.5C 40.2512,378.92 38.5846,377.587 37.5,375.5 Z" />
    </g>
    <g>
        <path style="opacity:0.988" fill="#7a0016"
            d="M 49.5,383.5 C 52.491,383.166 54.8243,384.166 56.5,386.5C 53.8427,386.065 51.5093,385.065 49.5,383.5 Z" />
    </g>
    <g>
        <path style="opacity:1" fill="#686868"
            d="M 93.5,382.5 C 145.5,383.833 197.5,383.833 249.5,382.5C 250.043,382.56 250.376,382.893 250.5,383.5C 197.833,384.833 145.167,384.833 92.5,383.5C 92.6236,382.893 92.9569,382.56 93.5,382.5 Z" />
    </g>
    <g>
        <path style="opacity:1" fill="#51030e"
            d="M 280.5,389.5 C 279.167,391.5 277.5,393.167 275.5,394.5C 276.167,391.833 277.833,390.167 280.5,389.5 Z" />
    </g>
    <g>
        <path style="opacity:0.996" fill="#62000f"
            d="M 66.5,392.5 C 67.9663,393.347 68.7996,394.68 69,396.5C 69.8007,399.367 69.6341,402.034 68.5,404.5C 68.6684,400.342 68.0017,396.342 66.5,392.5 Z" />
    </g>
    <g>
        <path style="opacity:1" fill="#54040f"
            d="M 125.5,397.5 C 124.148,400.165 122.482,402.498 120.5,404.5C 121.01,401.326 122.677,398.992 125.5,397.5 Z" />
    </g>
    <g>
        <path style="opacity:1" fill="#5f0010"
            d="M 120.5,404.5 C 119.434,411.343 118.101,418.009 116.5,424.5C 116.5,423.5 116.5,422.5 116.5,421.5C 116.783,415.468 118.117,409.801 120.5,404.5 Z" />
    </g>
    <g>
        <path style="opacity:0.988" fill="#750015"
            d="M 68.5,404.5 C 68.8294,407.228 68.1628,409.562 66.5,411.5C 66.7215,408.933 67.3882,406.599 68.5,404.5 Z" />
    </g>
    <g>
        <path style="opacity:0.98" fill="#a60020"
            d="M 223.5,408.5 C 225.423,412.029 226.089,416.029 225.5,420.5C 224.383,416.705 223.717,412.705 223.5,408.5 Z" />
    </g>
    <g>
        <path style="opacity:1" fill="#700014"
            d="M 66.5,411.5 C 66.8294,414.228 66.1628,416.562 64.5,418.5C 64.4095,415.848 65.0762,413.515 66.5,411.5 Z" />
    </g>
    <g>
        <path style="opacity:0.998" fill="#c00026"
            d="M 116.5,421.5 C 116.5,422.5 116.5,423.5 116.5,424.5C 116.5,425.167 116.167,425.5 115.5,425.5C 98.3251,425.83 81.3251,425.497 64.5,424.5C 81.5,424.5 98.5,424.5 115.5,424.5C 115.263,423.209 115.596,422.209 116.5,421.5 Z" />
    </g>
    <g>
        <path style="opacity:1" fill="#50000a"
            d="M 64.5,418.5 C 64.5,420.5 64.5,422.5 64.5,424.5C 81.3251,425.497 98.3251,425.83 115.5,425.5C 98.3414,426.497 81.008,426.83 63.5,426.5C 63.1936,423.615 63.5269,420.948 64.5,418.5 Z" />
    </g>
</svg>